/* XPM */
static char *c02d182051f34b83fbb8c01ff3d18584vXxeI1BsnvM8SJQf[] = {
/* columns rows colors chars-per-pixel */
"64 64 192 2 ",
"   c None",
".  c #010101",
"X  c gray3",
"o  c #363636",
"O  c #845A0E",
"+  c #8C5D0E",
"@  c #915E0E",
"#  c #93610E",
"$  c #9A640E",
"%  c #9C690E",
"&  c #A76B0E",
"*  c #AD700E",
"=  c #B8760E",
"-  c #BA7A14",
";  c #BD7E1B",
":  c #BF8221",
">  c #F6A10F",
",  c #F6A114",
"<  c #F6A21C",
"1  c #F6A81F",
"2  c #C88821",
"3  c #D89931",
"4  c #D3942C",
"5  c #F6A523",
"6  c #F6A925",
"7  c #F6A728",
"8  c #F5AA2B",
"9  c #F5AD33",
"0  c #F5AE3A",
"q  c #F6B034",
"w  c #F5B13C",
"e  c #EFA937",
"r  c #F69A56",
"t  c #F1AF42",
"y  c #EEB24F",
"u  c #F5B444",
"i  c #F6B64A",
"p  c #F6B94D",
"a  c #F6A853",
"s  c #EEB655",
"d  c #F5B751",
"f  c #F6BA53",
"g  c #F5BD5B",
"h  c #F6B55F",
"j  c #E5AD47",
"k  c #F68F6F",
"l  c #F6946D",
"z  c #F6877C",
"x  c #F68D7D",
"c  c #F68973",
"v  c #F6947D",
"b  c #F69B77",
"n  c #DDB169",
"m  c #F6AC64",
"M  c #F6AB6A",
"N  c #F5BD63",
"B  c #F6B96C",
"V  c #F6AC75",
"C  c #F6AB7B",
"Z  c #F6A37B",
"A  c #F6BB73",
"S  c #F9B87A",
"D  c #E7BB70",
"F  c #F6C05E",
"G  c #F6C164",
"H  c #F6C36B",
"J  c #FAC36D",
"K  c #F8C262",
"L  c #F6C673",
"P  c #FAC472",
"I  c #F6C974",
"U  c #FCC975",
"Y  c #F6CB7D",
"T  c #FCCC7C",
"R  c #F6C67A",
"E  c #0F8AAA",
"W  c #0F87AC",
"Q  c #0F8DB2",
"!  c #0F95BB",
"~  c #0F98BD",
"^  c #0F9BC1",
"/  c #119EC5",
"(  c #0FA3C8",
")  c #10A3CB",
"_  c #0FA8D1",
"`  c #11ADD7",
"'  c #23AED1",
"]  c #15B8E5",
"[  c #12BCEB",
"{  c #16B6E2",
"}  c #2ECAEF",
"|  c #37C6EA",
" . c #32CBF4",
".. c #47C8EB",
"X. c #4FD2F9",
"o. c #47D2F5",
"O. c #56D3FA",
"+. c #8A8A8A",
"@. c #9B9B9B",
"#. c #F68285",
"$. c #F68B84",
"%. c #F6858B",
"&. c #F68B8D",
"*. c #F69582",
"=. c #F69C85",
"-. c #F6948B",
";. c #F69F8A",
":. c #F68D92",
">. c #F69395",
",. c #F69699",
"<. c #F6999C",
"1. c #F6AD83",
"2. c #F6A18A",
"3. c #F8AB80",
"4. c #F69EA2",
"5. c #F6A2A4",
"6. c #F6A7A9",
"7. c #F6ABAC",
"8. c #F6AEB0",
"9. c #F6B4B6",
"0. c #F6BBBD",
"q. c #F6B7B9",
"w. c #EECA8D",
"e. c #EBC686",
"r. c #F6CE83",
"t. c #FCCE82",
"y. c #F6CE89",
"u. c #FACE88",
"i. c #F6D185",
"p. c #FCD186",
"a. c #F6D28C",
"s. c #FCD28C",
"d. c #EECB92",
"f. c #F6CF91",
"g. c #F6D594",
"h. c #FCD693",
"j. c #FCD897",
"k. c #F5D59B",
"l. c #FAD699",
"z. c #F6D89B",
"x. c #FCD89B",
"c. c #F5D6A3",
"v. c #F6D8A5",
"b. c #FCD8A2",
"n. c #F6DEA8",
"m. c #FFE1A7",
"M. c #FFE1AD",
"N. c #FFE2B4",
"B. c #FFE5BC",
"V. c #FFE8BF",
"C. c #F6BEC0",
"Z. c #F6C4C5",
"A. c #FFE6C2",
"S. c #FFE9C5",
"D. c #FFEACB",
"F. c #FFECD1",
"G. c #FFEDD6",
"H. c #FFEDD3",
"J. c #FFEFDA",
"K. c #FFEEDA",
"L. c #FFF0D6",
"P. c #FFF0D5",
"I. c #FFF0DA",
"U. c #FFF1DC",
"Y. c #FFEEE4",
"T. c #FFF2E2",
"R. c #FFF5E6",
"E. c #FFF4E4",
"W. c #FFF3E9",
"Q. c #FFF5E9",
"!. c #FFF6ED",
"~. c #FFF6EB",
"^. c #FFF8EE",
"/. c #FFF6F2",
"(. c #FFF6F0",
"). c #FFF6F4",
"_. c #FFF6F6",
"`. c #FFF7F6",
"'. c #FFF7F7",
"]. c #FFF6F4",
"[. c #FFF8F6",
"{. c #FFFAF6",
"}. c #FFFAF5",
"|. c #FFFCF7",
" X c #FFFAF5",
".X c #FFFDF9",
"XX c #FFFDFA",
"oX c #FFFEFA",
"OX c #FFFEFC",
"+X c white",
"@X c #FFFFFE",
"#X c #FFFFFE",
/* pixels */
"                            +X+X+X.X        +X X'.'./.).).'.XX+X+X+X|.I.S.A.        +X+X+X+X+X.X X                              ",
"                          +X+X+X+X X'.    +X X X'.'.).).'.'. X+X+X.X XH.N.N.N.    +X+X+X+X+X+X X!.Q.                            ",
"                        +X+X+X+X+X'.'.U.F.+X X'._._.W.).'.'. X+X+X+X|.H.N.N.N.}. X.X+X+X+X+X+X X/.Q.K.                          ",
"                      +X+X+X+X+X X X!.I.+X.X X'._._.W.W./.'. X+X+X+X.XK.N.M.H.Q.'.'.'..X+X+X+X'.'.Q.F.D.                        ",
"                       X X.X.X+X X'.W.D.+X.X X XXX_.W.F.Y./._..X+X+X^.D.M.N.D.W.).'.)._..X.X+X X'.W.D.B.D.                      ",
"                     X'.'.'. X X'.'.E.+X+X.XXX X.X_.W.F.D.K.!.XX.X^.D.N.n.N.S.T.).'.'.). X+X+X.X'.E.D.N.A.                      ",
"                    /.'.).'.'.'.'.!.K..X.X+X+X.X+X'.Q.H.A.D.H.U.K.D.B.M.m.m.A.T.'.'.'.'. X+X+X X!.U.A.M.B.                      ",
"                      W./.'.'.!.E.I.S. X X+X+X+X+X'./.H.B.N.N.N.N.m.< < m.m.N.U.W.'.'.'. X.X X'.Q.F.B.N.S.                      ",
"                      6 T.W.U.L.D.A.XX'.'. X+X+X+X'./.G.N.n.n.b.m.< < < < m.N.S.I.^.}.'.'.'./.Q.H.S.N.B.6                       ",
"                      , , I.F.S.A.B.'.'.'.'. X+X.X'./.F.N.n.n.< < < < < < < < B.A.S.F.F.K.K.H.F.A.B.B.D.<                       ",
"                    g., , > F.D.A.A. X_./.'.'.XX.X'.Q.S.n.m.< < < < < 5 5 5 < 5 N.B.N.B.B.B.N.N.B.N.S.T.< N                     ",
"                    g., > > , A.B.N.XX_.'.'./.'.'./.K.B.M.5 < 5 5 6 < < < < 5 < 5 , N.N.N.N.N.B.B.A., , < N                     ",
"                    a.> > , , , n.n.XX_._._.).)./.Y.D.B.N.< 5 5 < < < < < < < 5 < < < < , A.A.A.< , , < < g                     ",
"                  c.p., > , , < < , XX_._._._./.T.F.A.A.N.< < < < < I.K.T.< 5 6 7 8 8 8 6 5 < , , < , < < f r.                  ",
"                  z.Y , , , < 5 5 5 6 '._._.'.W.K.D.A.A.A.< < < < < D.F.K.W.8 8 9 9 9 q q 9 8 6 5 < < < < f Y                   ",
"                k.g.N , < 6 8 0 0 e t XX_._.'.W.K.D.D.A.B.< < < 5 5 5 A.H.E.W.u u i u u w 0 9 9 8 7 5 5 < f H f.                ",
"                k.Y 0 < 7 w w = = 2 i d  X'.'./.Y.G.D.S.A.< < 5 5 7 9 B.L.^.E.F g f g d i u = = = t 9 7 7 f H Y                 ",
"              k.i.s 8 8 w t 3 j s s G G G './.'./.Y.G.D.A.B.7 7 8 9 N.A.E.}.Q.J J J N N H N s s y 3 i u 0 e g Y y.              ",
"              g.L w 5 w u 4 G H I H I I P J '.'.'./.Y.F.F.D.B.N.N.N.B.F.^.^.!.J P U T t.t.Y Y T H G 2 d i 8 u G Y               ",
"            k.a.F e < w f = I Y a.a.y.p.p.r.T '.'. X/.W.K.K.F.D.D.F.K.Q.|./.U U T s.u.h.h.h.a.u.r.B = N f 5 9 y H y.            ",
"            g.r.f 5 , u G Y r.h.h.j.x.x.j.h.u.t..X|..X X}.^.Q.E.Q.^.}. X'.!.T u.s.h.j.j.x.x.j.l.g.a.i.I G , 5 e f R             ",
"          v.i.H e < #.g Y a.l.j.x.x.b.x.j.x.j.h.u.T '.'.|.|.|.|. X X X'.U T t.h.j.x.x.x.k.b.b.b.z.g.a.i.I #.< e i N y.          ",
"        n.k.Y u 5 #.#.L a.x.l.b.b.b.b.b.b.x.b.j.h.u.T J  X'.}.}._.H J P U t.h.j.j.x.b.b.b.b.b.b.v.j.g.a.Y #.#.5 0 f L g.        ",
"        v.a.g 7 #.#.#.Y j.z.b.+X+X+Xb.b.b.b.b.x.h.h.t.U J J J J H J J U T s.h.j.x.x.b.b.b.b.+X+X+Xx.k.a.i.#.#.#.8 e g Y         ",
"g.    z.k.H 8 &.%.:.&.r.h.v.+X+X+X+X+Xb.b.b.b.x.j.h.s.t.U U J J P P U U T s.j.j.x.x.b.b.b.+X+X+X+X+Xl.g.i.:.&.%.#.e t G Y     a.",
"a.a.a.a.P 0 %.:.>.,.<.y.x.+X+X! ! E +X+Xb.b.x.j.j.h.s.p.U U U U T U U U T s.s.j.j.j.x.x.+X+XE E E +X+Xa.i.5.5.<.&.#.q u g L r.I ",
"g G G f w :.:.>.4.4.4.a.x.+X! ( ) ~ E +Xb.x.j.j.j.h.s.T U U U P P P U U T s.s.j.h.j.j.j.+X! ~ / ! Q +Xa.r.7.9.6.5.&.#.7 9 u d p ",
":.9 9 7 &.&.,.5.6.6.  r.h.~ ) ] [ [ / W j.j.j.h.s.s.p.T P J J J J J J U T p.s.s.s.h.h.s.! ) { [ ` ^ ~ i.Y   9.q.9.5.:.#.5 5 6 #.",
"  <.<.<.<.4.7.9.9.    Y p.) ..+.o . ] ( p.h.s.h.s.s.T P J g g f f f g J U U p.p.p.p.p.T ' ..+.o . ] _ r.I     0.0.q.5.<.:.,.:.  ",
"    6.7.9.0.C.0.      H r.] @.+X@.X . ] T r.p.t.t.U P G d u 9 9 9 9 u f F P U T r.T T T ..@.+X@.X . } Y I       Z.Z.C.q.9.7.    ",
"                      g P } o +.o . .  .U T T T U J G f w 6 5 5 5 5 9 i g G J U T U T U o.o +.o . . o.R I                       ",
"                      u N X.. . . . . X.U U U J J G f u u w w w 9 9 q u i F G J J U U U X.. . . . . O.R A                       ",
"                      a M C . . . . . U U U J J G f d d G G G B N g d p p f N K J J U U U . . . . . 1.C C                       ",
"                      r b x &.. . . 3.P J J J K g d G L >.5.7.7.7.6.6.:.g d f K J J U P S 3.. . . &.&.=.Z                       ",
"                      l x z #.%.&.-.1.1.P J K f p g I r.r.&.,.6.6.6.,.R H F p d F K J P C 2.2.>.:.%.%.-.v                       ",
"                      k z #.#.%.&.-.2.1.A G F w u J Y a.z.v.:.:.,.:.h.a.Y J f u p F J S 3.2.-.>.:.%.%.$.v                       ",
"                      k z #.#.#.&.-.=.C B N d u p I i.z.v.v.v.&.&.v.v.k.a.I g u w i K S C =.-.&.%.%.%.%.v                       ",
"                        z z #.%.&.$.=.V B g d i p Y g.c.n.v.v.= = c.v.c.l.Y g w 8 q g A C 2.-.&.%.%.%.$.                        ",
"                        c #.#.z z v Z M N g f i d R i.k.v.v.c.= - d.c.v.d.Y G w 5 8 p H V Z *.-.&.%.&.x                         ",
"                            c c c l m h f g f i f = = w.v.c.e.- : D k.k.z.= = 9 5 8 u F B V Z v *.$.                            ",
"                              r a a i i u p f u p I = c.k.w.n = ; n w.e.e.= F 6 1 8 w i d g m M M                               ",
"                              +X+X8 9 q q t w 0 u G i.= - = - c.n.* = * = L p 1 < 6 8 8 9 0 w +X+X                              ",
"                            +X+X+X+X}.E.6 5 5 6 q p L a.e.k.c.c.v.v.v.g.i.F 8 , < 6 6 6 .X+X+X+X+X+X                            ",
"                            +X+X+X+X XE.F.B.S.< < q f I a.z.c.v.c.z.g.i.H q , , < B.F.Q. X+X+X+X+X+X                            ",
"                            +X+X+X+X|.E.H.B.D.I.Q.< q p G Y i.a.a.r.I F q , , A.B.B.D.E. X+X+X+X+X+X                            ",
"                            +X+X+X+X|.E.F.D.D.L.E. X.X+Xq i f g F f w 6 }.U.F.A.V.S.D.T.}.+X+X+X+X+X                            ",
"                            +X+X+X+X}.E.D.A.D.L.Q. X+X+X+X+X+X+X+X+X.X'.!.U.D.A.V.V.S.T.}.+X+X+X+X+X                            ",
"                            +X+X+X|.^.E.D.D.D.I.E.}.|..X+X+X+X+X+X+X.X'.E.I.D.A.V.V.S.T.}..X+X+X+X+X                            ",
"                              +X+X}.Q.I.D.S.D.U.Q./. X|.+X+X+X+X+X+X.X/.Q.L.A.B.B.A.D.I.^..X+X+X+X                              ",
"                              +X+X XE.H.D.D.F.T.Q.}./. X X.X.X+X+X+X.X}.U.D.B.V.B.B.D.K.^.|.+X+X+X                              ",
"                              +X+X!.U.L.D.D.F.U.E.!.!./.'. X.X+X+X.X}.E.L.S.B.N.B.S.D.L.E.}.+X+X+X                              ",
"                                 XQ.U.D.D.D.F.K.W.Q.!.!./.'. X.X X X^.I.D.B.N.B.A.S.S.P.U.^..X+X                                ",
"                                ^.E.D.D.D.D.D.L.I.T.E.!.!./.'.'.'.!.U.D.B.N.B.N.B.B.A.P.T.Q.|.+X                                ",
"                                  L.D.A.S.D.D.D.H.H.U.T.W.E.Q.Q.E.I.S.B.B.V.B.S.A.A.D.L.U.U.Q.                                  ",
"                                  D.A.A.D.D.L.L.I.F.F.L.L.P.P.P.D.A.B.B.A.D.I.F.D.H.U.E.I.I.G.                                  ",
"                                    D.D.P.U.E.!.!.Q.I.D.D.S.B.A.A.B.B.A.L.E.|.}.E.E.U.W.U.D.                                    ",
"                                    L.D.L.E. X|.|.|.}.E.P.D.D.    D.D.L.E.|.+X X/.!.Q.E.H.D.                                    ",
"                                      F.L.E.|..X+X.X+X.X^.U.I.    I.K.Q..X+X+X|.'./.!.E.K.                                      ",
"                                      F.H.E./. X|.+X+X.X^.E.U.    U.W.}.+X+X+X.X'./.E.W.U.                                      ",
"                                        H.E.Q. X X.X.X.X^.E.U.    U.E.|.+X+X+X|. X/.E.E.                                        ",
"                                        U.U.E.!.}. X.X XQ.E.I.    U.Q. X.X+XXX'.!.W.T.Q.                                        ",
"                                          O W.Q.Q.!./.!.W.U.O     + E.}..X X X!.Q.T.O                                           ",
"                                          + + + U.T.T.U.@ @ @     # + O ^.Q.W.E.@ # $                                           ",
"                                            * % + O O + % &         & # O O O + $ &                                             "
};
